<?xml version="1.0" encoding="utf-8"?>
<svg width="512px" height="512px" viewBox="0 0 512 512" version="1.1" xmlns:xlink="http://www.w3.org/1999/xlink" xmlns="http://www.w3.org/2000/svg">
  <defs>
    <linearGradient gradientUnits="objectBoundingBox" x1="0.49993148" y1="7.0929527E-06" x2="0.49993148" y2="0.9999929" id="gradient_1">
      <stop offset="27.8%" stop-color="#F20B0B" />
      <stop offset="55.4%" stop-color="#F90339" />
      <stop offset="97.565544%" stop-color="#A60017" />
    </linearGradient>
    <path d="M512 0L512 0L512 512L0 512L0 0L512 0Z" id="path_1" />
    <clipPath id="clip_1">
      <use xlink:href="#path_1" clip-rule="evenodd" fill-rule="evenodd" />
    </clipPath>
  </defs>
  <g id="icons8_heavy_dollar_sign">
    <path d="M512 0L512 0L512 512L0 512L0 0L512 0Z" id="icons8_heavy_dollar_sign" fill="none" stroke="none" />
    <path d="M386.773 298.155C381.281 287.243 373.538 277.62 364.053 269.92C352.891 260.953 340.588 253.507 327.467 247.776C309.453 239.865 291.047 232.88 272.32 226.848C255.825 222.442 240.254 215.111 226.347 205.205C218.153 198.199 213.598 187.841 213.973 177.067C213.402 165.011 218.023 153.288 226.667 144.864C236.853 137.092 249.507 133.266 262.293 134.091C276.051 133.415 289.49 138.368 299.52 147.808C306.336 155.908 310.63 165.828 311.872 176.341C312.826 181.358 317.252 184.959 322.357 184.875L382.347 184.875C385.406 184.957 388.346 183.69 390.386 181.409C392.426 179.128 393.36 176.066 392.939 173.035C390.005 152.557 380.81 133.489 366.613 118.443C345.249 98.6259 317.802 86.6285 288.747 84.4053L288 84.3413L288 52.8213C287.855 47.0735 283.081 42.5295 277.333 42.6667L245.333 42.6667C239.585 42.5295 234.812 47.0735 234.667 52.8213L234.667 84.7147C207.121 86.9712 180.714 96.7041 158.293 112.864C138.699 128.205 127.475 151.878 128 176.757C127.645 190.299 130.688 203.714 136.853 215.776C142.939 226.97 151.382 236.709 161.6 244.32C175.033 253.069 189.419 260.258 204.48 265.749C221.739 272.964 239.363 279.273 257.28 284.651C271.752 288.477 285.171 295.525 296.534 305.269C305.134 312.882 309.837 323.971 309.333 335.445C309.699 347.646 304.427 359.335 295.04 367.136C285.1 374.909 272.644 378.744 260.053 377.909C243.527 379.026 227.197 373.791 214.4 363.275C203.541 353.123 196.011 339.922 192.8 325.408C191.821 320.435 187.425 316.874 182.357 316.949L128.459 316.949C125.518 316.891 122.688 318.071 120.66 320.201C118.632 322.331 117.591 325.215 117.792 328.149C119.193 353.358 130.352 377.031 148.907 394.154C169.365 412.554 198.091 422.709 234.667 427.296L234.667 459.178C234.812 464.926 239.585 469.471 245.333 469.333L277.333 469.333C283.081 469.471 287.854 464.926 288 459.179L288 426.923C315.866 425.286 342.625 415.439 364.907 398.624C384.324 383.281 395.356 359.671 394.667 334.933C394.94 322.226 392.237 309.631 386.773 298.155L386.773 298.155Z" id="形狀" fill="url(#gradient_1)" stroke="none" clip-path="url(#clip_1)" />
  </g>
</svg>