<?xml version="1.0" encoding="utf-8"?>
<svg xmlns="http://www.w3.org/2000/svg" width="512" height="512" viewBox="0 0 48 48">
  <linearGradient id="cDfofcA~hTAdTQo16wv2qa" x1="28.487" x2="28.487" y1="111" y2="77" gradientTransform="matrix(1.03 0 0 -1 -5.342 118)" gradientUnits="userSpaceOnUse">
    <stop offset="0" stop-color="#039be5" />
    <stop offset="1" stop-color="#1e88e5" />
  </linearGradient>
  <path fill="url(#cDfofcA~hTAdTQo16wv2qa)" d="M10,7h28c1.657,0,3,1.343,3,3v28c0,1.657-1.343,3-3,3H10c-1.657,0-3-1.343-3-3V10C7,8.343,8.343,7,10,7z" />
  <g opacity=".66">
    <linearGradient id="cDfofcA~hTAdTQo16wv2qb" x1="11.982" x2="44.992" y1="94" y2="94" gradientTransform="matrix(1.03 0 0 -1 -5.342 118)" gradientUnits="userSpaceOnUse">
      <stop offset="0" stop-color="#0d47a1" stop-opacity="0" />
      <stop offset=".434" stop-color="#0d47a1" stop-opacity=".016" />
      <stop offset=".59" stop-color="#0d47a1" stop-opacity=".072" />
      <stop offset=".701" stop-color="#0d47a1" stop-opacity=".1" />
      <stop offset=".791" stop-color="#0d47a1" stop-opacity=".15" />
      <stop offset=".868" stop-color="#0d47a1" stop-opacity=".3" />
      <stop offset=".935" stop-color="#0d47a1" stop-opacity=".7" />
      <stop offset=".968" stop-color="#0d47a1" />
      <stop offset="1" stop-color="#0d47a1" />
    </linearGradient>
    <path fill="url(#cDfofcA~hTAdTQo16wv2qb)" d="M10,7h28c1.657,0,3,1.343,3,3v28c0,1.657-1.343,3-3,3H10c-1.657,0-3-1.343-3-3V10 C7,8.343,8.343,7,10,7z" />
    <linearGradient id="cDfofcA~hTAdTQo16wv2qc" x1="-382.019" x2="-349.01" y1="706" y2="706" gradientTransform="matrix(0 -1.03 -1 0 730 -352.658)" gradientUnits="userSpaceOnUse">
      <stop offset="0" stop-color="#0d47a1" stop-opacity="0" />
      <stop offset=".434" stop-color="#0d47a1" stop-opacity=".016" />
      <stop offset=".59" stop-color="#0d47a1" stop-opacity=".072" />
      <stop offset=".701" stop-color="#0d47a1" stop-opacity=".1" />
      <stop offset=".791" stop-color="#0d47a1" stop-opacity=".15" />
      <stop offset=".868" stop-color="#0d47a1" stop-opacity=".3" />
      <stop offset=".935" stop-color="#0d47a1" stop-opacity=".7" />
      <stop offset=".968" stop-color="#0d47a1" />
      <stop offset="1" stop-color="#0d47a1" />
    </linearGradient>
    <path fill="url(#cDfofcA~hTAdTQo16wv2qc)" d="M7,38V10c0-1.657,1.343-3,3-3h28c1.657,0,3,1.343,3,3v28c0,1.657-1.343,3-3,3H10 C8.343,41,7,39.657,7,38z" />
    <linearGradient id="cDfofcA~hTAdTQo16wv2qd" x1="212.019" x2="245.029" y1="1112" y2="1112" gradientTransform="matrix(-1.03 0 0 1 259.342 -1088)" gradientUnits="userSpaceOnUse">
      <stop offset="0" stop-color="#0d47a1" stop-opacity="0" />
      <stop offset=".434" stop-color="#0d47a1" stop-opacity=".016" />
      <stop offset=".59" stop-color="#0d47a1" stop-opacity=".072" />
      <stop offset=".701" stop-color="#0d47a1" stop-opacity=".1" />
      <stop offset=".791" stop-color="#0d47a1" stop-opacity=".15" />
      <stop offset=".868" stop-color="#0d47a1" stop-opacity=".3" />
      <stop offset=".935" stop-color="#0d47a1" stop-opacity=".7" />
      <stop offset=".968" stop-color="#0d47a1" />
      <stop offset="1" stop-color="#0d47a1" />
    </linearGradient>
    <path fill="url(#cDfofcA~hTAdTQo16wv2qd)" d="M38,41H10c-1.657,0-3-1.343-3-3V10c0-1.657,1.343-3,3-3h28c1.657,0,3,1.343,3,3v28 C41,39.657,39.657,41,38,41z" />
    <linearGradient id="cDfofcA~hTAdTQo16wv2qe" x1="606.019" x2="639.029" y1="500" y2="500" gradientTransform="matrix(0 1.03 1 0 -476 -617.342)" gradientUnits="userSpaceOnUse">
      <stop offset="0" stop-color="#0d47a1" stop-opacity="0" />
      <stop offset=".434" stop-color="#0d47a1" stop-opacity=".016" />
      <stop offset=".59" stop-color="#0d47a1" stop-opacity=".072" />
      <stop offset=".701" stop-color="#0d47a1" stop-opacity=".1" />
      <stop offset=".791" stop-color="#0d47a1" stop-opacity=".15" />
      <stop offset=".868" stop-color="#0d47a1" stop-opacity=".3" />
      <stop offset=".935" stop-color="#0d47a1" stop-opacity=".7" />
      <stop offset=".968" stop-color="#0d47a1" />
      <stop offset="1" stop-color="#0d47a1" />
    </linearGradient>
    <path fill="url(#cDfofcA~hTAdTQo16wv2qe)" d="M41,10v28c0,1.657-1.343,3-3,3H10c-1.657,0-3-1.343-3-3V10c0-1.657,1.343-3,3-3h28 C39.657,7,41,8.343,41,10z" />
  </g>
  <linearGradient id="cDfofcA~hTAdTQo16wv2qf" x1="24.646" x2="24.646" y1="12.583" y2="34.8" gradientUnits="userSpaceOnUse">
    <stop offset="0" stop-color="#fff" />
    <stop offset=".325" stop-color="#fbfbfc" />
    <stop offset=".662" stop-color="#eeeef4" />
    <stop offset="1" stop-color="#dadae6" />
  </linearGradient>
  <path fill="url(#cDfofcA~hTAdTQo16wv2qf)" d="M36.146,23.646l-8.293-8.293C27.539,15.039,27,15.262,27,15.707V21H13.5 c-0.276,0-0.5,0.224-0.5,0.5v5c0,0.276,0.224,0.5,0.5,0.5H27v5.293c0,0.445,0.539,0.669,0.854,0.354l8.293-8.293 C36.342,24.158,36.342,23.842,36.146,23.646z" />
</svg>