<?xml version="1.0" encoding="utf-8"?>
<svg width="512px" height="512px" viewBox="0 0 512 512" version="1.1" xmlns:xlink="http://www.w3.org/1999/xlink" xmlns="http://www.w3.org/2000/svg">
  <defs>
    <linearGradient gradientUnits="objectBoundingBox" x1="0.5" y1="0" x2="0.5" y2="1" id="gradient_1">
      <stop offset="2.059925%" stop-color="#4000B4" />
      <stop offset="100%" stop-color="#6F00FF" />
    </linearGradient>
    <path d="M512 0L512 0L512 512L0 512L0 0L512 0Z" id="path_1" />
    <clipPath id="clip_1">
      <use xlink:href="#path_1" clip-rule="evenodd" fill-rule="evenodd" />
    </clipPath>
  </defs>
  <g id="icons8_eight-pointed_star">
    <path d="M512 0L512 0L512 512L0 512L0 0L512 0Z" id="icons8_eight-pointed_star" fill="none" stroke="none" />
    <g id="Group" transform="translate(53.333336 53.333336)" clip-path="url(#clip_1)">
      <path d="M268.181 206.946L349.248 75.6658C353.213 70.4628 352.763 63.0588 348.197 58.397C343.632 53.7352 336.381 53.2751 331.285 57.3239L202.667 140.048L74.1013 57.2695C69.0058 53.2207 61.755 53.6808 57.1896 58.3426C52.6242 63.0044 52.1736 70.4083 56.1387 75.6114L137.152 206.946L56.0853 338.225C52.1203 343.428 52.5709 350.832 57.1363 355.494C61.7017 360.156 68.9525 360.616 74.048 356.567L202.667 273.844L331.232 356.622C336.328 360.671 343.578 360.21 348.144 355.549C352.709 350.887 353.16 343.483 349.195 338.28L268.181 206.946Z" id="形狀" fill="url(#gradient_1)" stroke="none" />
      <path d="M394.347 192.95L248.725 159.914L216.373 11.2186C214.933 4.67035 209.239 0.0169449 202.667 0.0169449C196.094 0.0169449 190.4 4.67035 188.96 11.2186L156.608 159.914L10.9867 192.95C4.57379 194.42 0.0165958 200.234 0.0165958 206.946C0.0165958 213.657 4.57379 219.471 10.9867 220.942L156.608 253.977L188.96 402.673C190.4 409.221 196.094 413.874 202.667 413.874C209.239 413.874 214.933 409.221 216.373 402.673L248.725 253.977L394.347 220.942C400.76 219.471 405.317 213.657 405.317 206.946C405.317 200.234 400.76 194.42 394.347 192.95L394.347 192.95Z" id="形狀" fill="url(#gradient_1)" stroke="none" />
      <path d="M216.405 11.2622C214.937 4.70976 209.249 0.0477141 202.667 0L202.667 206.946L248.715 159.925L216.405 11.2622Z" id="形狀" fill="url(#gradient_1)" stroke="none" />
      <path d="M188.928 11.2622C190.397 4.70976 196.084 0.0477141 202.667 0L202.667 206.946L156.619 159.925L188.928 11.2622Z" id="形狀" fill="url(#gradient_1)" stroke="none" />
      <path d="M216.405 402.629C214.937 409.182 209.249 413.844 202.667 413.891L202.667 206.946L248.715 253.966L216.405 402.629Z" id="形狀" fill="url(#gradient_1)" stroke="none" />
      <path d="M188.928 402.629C190.397 409.182 196.084 413.844 202.667 413.891L202.667 206.946L156.619 253.966L188.928 402.629Z" id="形狀" fill="url(#gradient_1)" stroke="none" />
      <path d="M394.304 192.917C400.721 194.417 405.287 200.224 405.333 206.946L202.667 206.946L248.715 159.925L394.304 192.917Z" id="形狀" fill="url(#gradient_1)" stroke="none" />
      <path d="M394.304 220.974C400.721 219.475 405.287 213.667 405.333 206.946L202.667 206.946L248.715 253.966L394.304 220.974Z" id="形狀" fill="url(#gradient_1)" stroke="none" />
      <path d="M11.0293 192.917C4.61238 194.417 0.0467275 200.224 0 206.946L202.667 206.946L156.619 159.925L11.0293 192.917Z" id="形狀" fill="url(#gradient_1)" stroke="none" />
      <path d="M11.0293 220.974C4.61238 219.475 0.0467275 213.667 0 206.946L202.667 206.946L156.619 253.966L11.0293 220.974Z" id="形狀" fill="url(#gradient_1)" stroke="none" />
    </g>
  </g>
</svg>