<?xml version="1.0" encoding="utf-8"?>
<svg width="512px" height="512px" viewBox="0 0 512 512" version="1.1" xmlns:xlink="http://www.w3.org/1999/xlink" xmlns="http://www.w3.org/2000/svg">
  <defs>
    <linearGradient gradientUnits="objectBoundingBox" x1="0.5" y1="0" x2="0.5" y2="1" id="gradient_1">
      <stop offset="5.4307113%" stop-color="#29DD00" />
      <stop offset="97.19101%" stop-color="#39A400" />
    </linearGradient>
    <path d="M512 0L512 0L512 512L0 512L0 0L512 0Z" id="path_1" />
    <clipPath id="clip_1">
      <use xlink:href="#path_1" clip-rule="evenodd" fill-rule="evenodd" />
    </clipPath>
  </defs>
  <g id="icons8_eight-pointed_star">
    <path d="M512 0L512 0L512 512L0 512L0 0L512 0Z" id="icons8_eight-pointed_star" fill="none" stroke="none" />
    <g id="Group" transform="translate(53.333336 53.333336)" clip-path="url(#clip_1)">
      <path d="M268.181 202.667L349.248 74.1013C353.213 69.0058 352.763 61.755 348.197 57.1895C343.632 52.6241 336.381 52.1736 331.285 56.1387L202.667 137.152L74.1013 56.0853C69.0058 52.1203 61.755 52.5708 57.1896 57.1363C52.6242 61.7017 52.1736 68.9525 56.1387 74.048L137.152 202.667L56.0853 331.232C52.1203 336.328 52.5709 343.578 57.1363 348.144C61.7017 352.709 68.9525 353.16 74.048 349.195L202.667 268.181L331.232 349.248C336.328 353.213 343.578 352.763 348.144 348.197C352.709 343.632 353.16 336.381 349.195 331.285L268.181 202.667Z" id="形狀" fill="url(#gradient_1)" stroke="none" />
      <path d="M394.347 188.96L248.725 156.608L216.373 10.9867C214.933 4.57379 209.239 0.0165965 202.667 0.0165965C196.094 0.0165965 190.4 4.57379 188.96 10.9867L156.608 156.608L10.9867 188.96C4.57379 190.4 0.0165965 196.094 0.0165965 202.667C0.0165965 209.239 4.57379 214.933 10.9867 216.373L156.608 248.725L188.96 394.347C190.4 400.76 196.094 405.317 202.667 405.317C209.239 405.317 214.933 400.76 216.373 394.347L248.725 248.725L394.347 216.373C400.76 214.933 405.317 209.239 405.317 202.667C405.317 196.094 400.76 190.4 394.347 188.96L394.347 188.96Z" id="形狀" fill="url(#gradient_1)" stroke="none" />
      <path d="M216.405 11.0293C214.937 4.61238 209.249 0.0467275 202.667 0L202.667 202.667L248.715 156.619L216.405 11.0293Z" id="形狀" fill="url(#gradient_1)" stroke="none" />
      <path d="M188.928 11.0293C190.397 4.61238 196.084 0.0467275 202.667 0L202.667 202.667L156.619 156.619L188.928 11.0293Z" id="形狀" fill="url(#gradient_1)" stroke="none" />
      <path d="M216.405 394.304C214.937 400.721 209.249 405.287 202.667 405.333L202.667 202.667L248.715 248.715L216.405 394.304Z" id="形狀" fill="url(#gradient_1)" stroke="none" />
      <path d="M188.928 394.304C190.397 400.721 196.084 405.287 202.667 405.333L202.667 202.667L156.619 248.715L188.928 394.304Z" id="形狀" fill="url(#gradient_1)" stroke="none" />
      <path d="M394.304 188.928C400.721 190.397 405.287 196.084 405.333 202.667L202.667 202.667L248.715 156.619L394.304 188.928Z" id="形狀" fill="url(#gradient_1)" stroke="none" />
      <path d="M394.304 216.405C400.721 214.937 405.287 209.249 405.333 202.667L202.667 202.667L248.715 248.715L394.304 216.405Z" id="形狀" fill="url(#gradient_1)" stroke="none" />
      <path d="M11.0293 188.928C4.61238 190.397 0.0467275 196.084 0 202.667L202.667 202.667L156.619 156.619L11.0293 188.928Z" id="形狀" fill="url(#gradient_1)" stroke="none" />
      <path d="M11.0293 216.405C4.61238 214.937 0.0467275 209.249 0 202.667L202.667 202.667L156.619 248.715L11.0293 216.405Z" id="形狀" fill="url(#gradient_1)" stroke="none" />
    </g>
  </g>
</svg>