<?xml version="1.0" encoding="utf-8"?>
<svg xmlns="http://www.w3.org/2000/svg" xmlns:xlink="http://www.w3.org/1999/xlink" viewBox="0 0 48 48" width="512" height="512">
  <defs>
    <linearGradient id="dH_iMSzIpdlIEuPPfhCXoc" x1="17.5" x2="17.5" y1="7" y2="41" gradientTransform="matrix(1.03 0 0 1 5.97 0)" gradientUnits="userSpaceOnUse">
      <stop offset="0" stop-color="#61c1ff" />
      <stop offset="1" stop-color="#2133f6" />
    </linearGradient>
    <linearGradient id="dH_iMSzIpdlIEuPPfhCXoa" x1="1" x2="34" y1="24" y2="24" gradientTransform="matrix(1.03 0 0 1 5.97 0)" gradientUnits="userSpaceOnUse">
      <stop offset="0" stop-color="#84cdfa" stop-opacity="0" />
      <stop offset=".393" stop-color="#83ccf9" stop-opacity=".01" />
      <stop offset=".534" stop-color="#7fcaf8" stop-opacity=".044" />
      <stop offset=".635" stop-color="#78c5f4" stop-opacity=".105" />
      <stop offset=".717" stop-color="#6fbff0" stop-opacity=".191" />
      <stop offset=".787" stop-color="#62b7ea" stop-opacity=".303" />
      <stop offset=".849" stop-color="#53ade2" stop-opacity=".442" />
      <stop offset=".905" stop-color="#40a1d9" stop-opacity=".607" />
      <stop offset=".954" stop-color="#2b93cf" stop-opacity=".793" />
      <stop offset="1" stop-color="#1484c4" />
    </linearGradient>
    <linearGradient id="dH_iMSzIpdlIEuPPfhCXod" x1="-659" x2="-626" y1="-112" y2="-112" gradientTransform="matrix(1.03 0 0 1 685.97 136)" xlink:href="#dH_iMSzIpdlIEuPPfhCXoa" />
    <linearGradient id="dH_iMSzIpdlIEuPPfhCXoe" x1="-527" x2="-494" y1="-792" y2="-792" gradientTransform="matrix(1.03 0 0 1 549.97 816)" xlink:href="#dH_iMSzIpdlIEuPPfhCXoa" />
    <linearGradient id="dH_iMSzIpdlIEuPPfhCXof" x1="133" x2="166" y1="-656" y2="-656" gradientTransform="matrix(1.03 0 0 1 -130.03 680)" xlink:href="#dH_iMSzIpdlIEuPPfhCXoa" />
    <linearGradient id="dH_iMSzIpdlIEuPPfhCXob" x1="20" x2="20" y1="16" y2="32" gradientTransform="matrix(-1 0 0 1 49 0)" gradientUnits="userSpaceOnUse">
      <stop offset="0" stop-color="#fff" />
      <stop offset=".325" stop-color="#fbfbfc" />
      <stop offset=".662" stop-color="#eeeef4" />
      <stop offset="1" stop-color="#dadae6" />
    </linearGradient>
    <linearGradient id="dH_iMSzIpdlIEuPPfhCXog" x1="31" x2="31" y1="16" y2="32" xlink:href="#dH_iMSzIpdlIEuPPfhCXob" />
  </defs>
  <g data-name="fasr reverse button">
    <rect width="34" height="34" x="7" y="7" fill="url(#dH_iMSzIpdlIEuPPfhCXoc)" rx="3" />
    <g opacity=".5">
      <rect width="34" height="34" x="7" y="7" fill="url(#dH_iMSzIpdlIEuPPfhCXoa)" rx="3" />
      <rect width="34" height="34" x="7" y="7" fill="url(#dH_iMSzIpdlIEuPPfhCXod)" rx="3" transform="rotate(-90 24 24)" />
      <rect width="34" height="34" x="7" y="7" fill="url(#dH_iMSzIpdlIEuPPfhCXoe)" rx="3" transform="rotate(180 24 24)" />
      <rect width="34" height="34" x="7" y="7" fill="url(#dH_iMSzIpdlIEuPPfhCXof)" rx="3" transform="rotate(90 24 24)" />
    </g>
    <path fill="url(#dH_iMSzIpdlIEuPPfhCXob)" d="M36,16.857V31.143a.788.788,0,0,1-1.149.757L22.419,24.758a.9.9,0,0,1,0-1.516L34.851,16.1A.788.788,0,0,1,36,16.857Z" />
    <path fill="url(#dH_iMSzIpdlIEuPPfhCXog)" d="M25,16.857V31.143a.788.788,0,0,1-1.149.757L11.419,24.758a.9.9,0,0,1,0-1.516L23.851,16.1A.788.788,0,0,1,25,16.857Z" />
  </g>
</svg>