<?xml version="1.0" encoding="utf-8"?>
<svg xmlns="http://www.w3.org/2000/svg" viewBox="0 0 48 48" width="512" height="512">
  <path fill="#61676c" d="M24,17.596c-3.537,0-6.404,2.867-6.404,6.404s2.867,6.404,6.404,6.404s6.404-2.867,6.404-6.404S27.537,17.596,24,17.596z M24,26.562c-1.415,0-2.562-1.147-2.562-2.562c0-1.415,1.147-2.562,2.562-2.562s2.562,1.147,2.562,2.562C26.562,25.415,25.415,26.562,24,26.562z" />
  <linearGradient id="FU0jZ8taJoalsHj6KPdg4a" x1="49.463" x2="72.931" y1="-73.001" y2="-28.577" gradientTransform="rotate(-15.225 329.061 120.82)" gradientUnits="userSpaceOnUse">
    <stop offset="0" stop-color="#9aa1a8" />
    <stop offset="1" stop-color="#70767d" />
  </linearGradient>
  <path fill="url(#FU0jZ8taJoalsHj6KPdg4a)" d="M43.353,16.803L40.7,16.735c-0.042,0.002-0.085,0.009-0.126,0.02l-2.042,0.556c-0.433-0.943-0.95-1.828-1.542-2.65l1.488-1.49c0.03-0.03,0.057-0.063,0.08-0.099l1.257-2.337c0.129-0.2,0.117-0.443-0.029-0.588l-1.939-1.937c-0.146-0.146-0.389-0.158-0.588-0.028l-2.336,1.26c-0.036,0.023-0.069,0.05-0.099,0.08l-1.481,1.483c-0.89-0.638-1.842-1.184-2.842-1.629l0.529-2.027c0.011-0.041,0.017-0.084,0.019-0.126l-0.095-2.652c0.01-0.238-0.122-0.441-0.322-0.493L27.98,3.386c-0.2-0.052-0.415,0.06-0.522,0.273l-1.38,2.267c-0.019,0.038-0.034,0.078-0.045,0.119l-0.532,2.037c-1.032-0.097-2.081-0.092-3.139,0.019l-0.568-2.087c-0.011-0.041-0.027-0.081-0.046-0.119l-1.403-2.252c-0.109-0.211-0.326-0.321-0.525-0.267l-2.645,0.72c-0.199,0.054-0.33,0.259-0.317,0.497L16.79,7.245c0.002,0.042,0.009,0.085,0.02,0.126l0.568,2.087c-0.968,0.441-1.874,0.968-2.715,1.575l-1.491-1.486c-0.03-0.03-0.064-0.057-0.099-0.08l-2.338-1.254c-0.2-0.129-0.443-0.116-0.588,0.03l-1.935,1.941c-0.146,0.146-0.157,0.389-0.028,0.588l1.262,2.334c0.023,0.036,0.05,0.069,0.08,0.099l1.484,1.479c-0.637,0.89-1.181,1.844-1.624,2.845l-2.028-0.527c-0.041-0.011-0.084-0.017-0.126-0.019L4.58,17.081c-0.238-0.01-0.441,0.123-0.493,0.323l-0.689,2.653c-0.052,0.2,0.061,0.415,0.273,0.522l2.268,1.377c0.038,0.019,0.078,0.034,0.119,0.045l2.038,0.53c-0.093,1.008-0.09,2.033,0.014,3.066l-2.042,0.556c-0.041,0.011-0.081,0.027-0.119,0.046l-2.252,1.403c-0.211,0.109-0.321,0.326-0.267,0.525l0.72,2.645c0.054,0.199,0.259,0.33,0.497,0.317L7.3,31.156c0.042-0.002,0.085-0.009,0.126-0.02l2.026-0.552c0.442,0.981,0.974,1.899,1.587,2.75l-1.488,1.49c-0.03,0.03-0.057,0.064-0.08,0.099L8.213,37.26c-0.129,0.2-0.117,0.443,0.029,0.588l1.939,1.937c0.146,0.146,0.389,0.158,0.588,0.028l2.336-1.26c0.036-0.023,0.069-0.05,0.099-0.08l1.481-1.483c0.89,0.638,1.842,1.184,2.843,1.629l-0.529,2.027c-0.011,0.041-0.017,0.084-0.019,0.126l0.095,2.652c-0.01,0.238,0.123,0.441,0.322,0.493l2.652,0.692c0.2,0.052,0.415-0.06,0.522-0.273l1.38-2.267c0.019-0.038,0.034-0.078,0.045-0.119l0.532-2.037c1.032,0.097,2.081,0.092,3.139-0.019l0.54,1.981c0.011,0.041,0.027,0.081,0.046,0.119l1.403,2.252c0.109,0.211,0.326,0.321,0.525,0.267l2.645-0.72c0.199-0.054,0.33-0.259,0.317-0.497l0.068-2.653c-0.002-0.042-0.009-0.085-0.02-0.126l-0.54-1.981c0.968-0.441,1.874-0.968,2.715-1.575l1.491,1.486c0.03,0.03,0.064,0.057,0.099,0.08l2.338,1.254c0.2,0.129,0.443,0.116,0.588-0.03l1.935-1.941c0.146-0.146,0.157-0.389,0.028-0.588l-1.262-2.334c-0.023-0.036-0.05-0.069-0.08-0.099l-1.484-1.479c0.637-0.891,1.181-1.844,1.624-2.845l2.028,0.527c0.041,0.011,0.084,0.017,0.126,0.019l2.652-0.098c0.238,0.01,0.441-0.123,0.493-0.323l0.689-2.653c0.052-0.2-0.061-0.415-0.273-0.522l-2.268-1.377c-0.038-0.019-0.078-0.034-0.119-0.045l-2.038-0.53c0.097-1.044,0.089-2.105-0.027-3.175l2.026-0.552c0.041-0.011,0.081-0.027,0.119-0.046l2.252-1.403c0.211-0.109,0.321-0.326,0.267-0.525l-0.72-2.645C43.795,16.921,43.591,16.79,43.353,16.803z M24.839,27.026c-1.672,0.455-3.397-0.531-3.853-2.204c-0.455-1.672,0.531-3.397,2.204-3.853c1.672-0.455,3.397,0.531,3.853,2.204C27.498,24.846,26.511,26.571,24.839,27.026z" />
  <linearGradient id="FU0jZ8taJoalsHj6KPdg4b" x1="55.154" x2="66.18" y1="-64.981" y2="-38.061" gradientTransform="rotate(-15.225 329.061 120.82)" gradientUnits="userSpaceOnUse">
    <stop offset="0" stop-color="#a7adb7" />
    <stop offset=".441" stop-color="#d5d8de" />
    <stop offset="1" stop-color="#87909b" />
  </linearGradient>
  <path fill="url(#FU0jZ8taJoalsHj6KPdg4b)" d="M39.408,22.346c-0.026-0.245,0.128-0.472,0.366-0.537l2.026-0.552l2.238-1.392l-0.671-2.614l-0.001,0c-0.013,0.004-0.014,0.06-0.026,0.051l-2.653-0.067l-2.024,0.559c-0.236,0.064-0.484-0.051-0.586-0.274c-0.414-0.902-0.917-1.765-1.493-2.566c-0.144-0.199-0.122-0.473,0.052-0.646l1.489-1.489l1.25-2.32l-1.881-1.934l-2.334,1.317l-1.465,1.476c-0.171,0.173-0.446,0.195-0.644,0.053c-0.859-0.616-1.786-1.147-2.754-1.578c-0.224-0.1-0.342-0.347-0.28-0.584l0.529-2.027l-0.093-2.634l-2.601-0.72l-1.348,2.316l-0.52,2.022c-0.062,0.237-0.286,0.394-0.53,0.371c-1.005-0.094-2.029-0.087-3.041,0.018c-0.244,0.026-0.47-0.129-0.535-0.366l-0.568-2.086L19.92,3.907l-2.614,0.671l-0.017,2.68l0.572,2.068c0.064,0.237-0.052,0.485-0.276,0.586c-0.926,0.422-1.811,0.935-2.63,1.526c-0.199,0.141-0.472,0.121-0.645-0.051L12.818,9.9l-2.32-1.248l-1.932,1.883l1.32,2.332l1.477,1.461c0.173,0.172,0.196,0.446,0.054,0.645c-0.616,0.862-1.146,1.79-1.574,2.757c-0.099,0.223-0.348,0.344-0.582,0.281l-2.028-0.527l-2.634,0.096l-0.717,2.602l2.318,1.346l2.024,0.518c0.237,0.061,0.396,0.286,0.372,0.53c-0.091,0.982-0.087,1.981,0.014,2.969c0.025,0.243-0.13,0.469-0.366,0.533L6.2,26.634l-2.239,1.391l0.671,2.615l2.679,0.016l2.008-0.555c0.237-0.065,0.486,0.053,0.588,0.277c0.424,0.94,0.94,1.836,1.536,2.663c0.144,0.199,0.122,0.473-0.052,0.646l-1.489,1.489l-1.25,2.32l1.881,1.934l2.333-1.318l1.465-1.475c0.17-0.174,0.446-0.195,0.644-0.053c0.861,0.618,1.788,1.149,2.754,1.578c0.224,0.1,0.342,0.347,0.28,0.584l-0.529,2.027l0.093,2.634l2.601,0.72l1.348-2.316l0.52-2.022c0.047-0.178,0.184-0.31,0.352-0.356c0.057-0.015,0.117-0.021,0.178-0.015c1.005,0.094,2.029,0.087,3.041-0.018c0.244-0.026,0.47,0.129,0.535,0.366l0.539,1.981l1.391,2.239l2.614-0.671l0.017-2.68l-0.543-1.962c-0.064-0.237,0.052-0.485,0.276-0.586c0.926-0.422,1.811-0.935,2.63-1.526c0.198-0.144,0.471-0.122,0.645,0.051l1.492,1.486l2.32,1.248l1.932-1.883l-1.32-2.332l-1.477-1.461c-0.173-0.172-0.196-0.446-0.054-0.645c0.615-0.86,1.145-1.787,1.574-2.757c0.099-0.223,0.347-0.345,0.582-0.281l2.028,0.527l2.634-0.096l0.717-2.602l-2.318-1.346l-2.024-0.518c-0.237-0.061-0.396-0.286-0.372-0.53C39.529,24.405,39.519,23.371,39.408,22.346z M24.839,27.026c-1.672,0.455-3.397-0.531-3.853-2.204c-0.455-1.672,0.531-3.397,2.204-3.853c1.672-0.455,3.397,0.531,3.853,2.204C27.498,24.846,26.511,26.571,24.839,27.026z" />
  <linearGradient id="FU0jZ8taJoalsHj6KPdg4c" x1="15.335" x2="33.024" y1="13.347" y2="35.094" gradientUnits="userSpaceOnUse">
    <stop offset="0" stop-color="#808a93" />
    <stop offset="1" stop-color="#e4e6ea" />
  </linearGradient>
  <path fill="url(#FU0jZ8taJoalsHj6KPdg4c)" d="M24,10.59c-7.406,0-13.41,6.004-13.41,13.41S16.594,37.41,24,37.41S37.41,31.406,37.41,24S31.406,10.59,24,10.59z M24,27.237c-1.788,0-3.237-1.449-3.237-3.237c0-1.788,1.449-3.237,3.237-3.237s3.237,1.449,3.237,3.237C27.237,25.788,25.788,27.237,24,27.237z" />
  <linearGradient id="FU0jZ8taJoalsHj6KPdg4d" x1="15.285" x2="32.462" y1="13.285" y2="34.404" gradientUnits="userSpaceOnUse">
    <stop offset="0" stop-color="#69727c" />
    <stop offset="1" stop-color="#777e84" />
  </linearGradient>
  <path fill="url(#FU0jZ8taJoalsHj6KPdg4d)" d="M24,11c-7.18,0-13,5.82-13,13s5.82,13,13,13s13-5.82,13-13S31.18,11,24,11z M24,27.138c-1.733,0-3.138-1.405-3.138-3.138c0-1.733,1.405-3.138,3.138-3.138s3.138,1.405,3.138,3.138C27.138,25.733,25.733,27.138,24,27.138z" />
  <linearGradient id="FU0jZ8taJoalsHj6KPdg4e" x1="25.027" x2="31.201" y1="24.837" y2="30.343" gradientUnits="userSpaceOnUse">
    <stop offset="0" stop-color="#69727c" />
    <stop offset="1" stop-color="#777e84" />
  </linearGradient>
  <path fill="url(#FU0jZ8taJoalsHj6KPdg4e)" d="M27.509,18.21c2.139,1.198,3.587,3.483,3.587,6.109c0,3.866-3.134,7-7,7 c-1.953,0-3.717-0.801-4.986-2.091c1.209,2.884,4.057,4.91,7.38,4.91c4.418,0,8-3.582,8-8 C34.489,22.066,31.444,18.712,27.509,18.21z" />
  <linearGradient id="FU0jZ8taJoalsHj6KPdg4f" x1="24.996" x2="31.069" y1="24.809" y2="30.225" gradientUnits="userSpaceOnUse">
    <stop offset="0" stop-color="#67707a" />
    <stop offset="1" stop-color="#747b81" />
  </linearGradient>
  <path fill="url(#FU0jZ8taJoalsHj6KPdg4f)" d="M27.509,18.21c2.057,1.152,3.475,3.309,3.58,5.808c0.004,0.107,0.007,0.214,0.006,0.322 c-0.011,3.603-2.746,6.565-6.253,6.936c-0.263,0.028-0.53,0.041-0.8,0.039c-1.603-0.012-3.077-0.565-4.251-1.484 c-0.233-0.166-0.451-0.349-0.653-0.547c1.214,2.77,3.989,4.71,7.217,4.71c4.401,0,7.97-3.568,7.97-7.97 c0-3.164-1.851-5.89-4.526-7.163C29.086,18.537,28.316,18.313,27.509,18.21z" />
  <linearGradient id="FU0jZ8taJoalsHj6KPdg4g" x1="24.965" x2="30.936" y1="24.781" y2="30.107" gradientUnits="userSpaceOnUse">
    <stop offset="0" stop-color="#656e77" />
    <stop offset="1" stop-color="#72787e" />
  </linearGradient>
  <path fill="url(#FU0jZ8taJoalsHj6KPdg4g)" d="M27.509,18.21c2.063,1.155,3.482,3.321,3.581,5.828c0.004,0.108,0.006,0.216,0.005,0.324 c-0.023,3.61-2.779,6.571-6.302,6.917c-0.265,0.026-0.533,0.037-0.804,0.033c-1.604-0.025-3.075-0.59-4.243-1.521 c-0.208-0.133-0.401-0.284-0.579-0.449c1.22,2.657,3.92,4.511,7.054,4.511c4.385,0,7.939-3.554,7.939-7.939 c0-3.106-1.798-5.787-4.403-7.067C29.056,18.53,28.301,18.311,27.509,18.21z" />
  <linearGradient id="FU0jZ8taJoalsHj6KPdg4h" x1="24.933" x2="30.803" y1="24.753" y2="29.989" gradientUnits="userSpaceOnUse">
    <stop offset="0" stop-color="#636c75" />
    <stop offset="1" stop-color="#6f767b" />
  </linearGradient>
  <path fill="url(#FU0jZ8taJoalsHj6KPdg4h)" d="M27.509,18.21c2.068,1.158,3.49,3.332,3.581,5.848c0.004,0.108,0.005,0.217,0.004,0.326 c-0.034,3.617-2.812,6.577-6.351,6.898c-0.267,0.024-0.537,0.033-0.808,0.027c-1.604-0.037-3.073-0.615-4.234-1.558 c-0.184-0.101-0.352-0.22-0.504-0.352c1.226,2.544,3.851,4.311,6.891,4.311c4.368,0,7.909-3.541,7.909-7.909 c0-3.049-1.744-5.684-4.28-6.971C29.027,18.523,28.286,18.309,27.509,18.21z" />
  <linearGradient id="FU0jZ8taJoalsHj6KPdg4i" x1="24.901" x2="30.67" y1="24.726" y2="29.871" gradientUnits="userSpaceOnUse">
    <stop offset="0" stop-color="#626a72" />
    <stop offset="1" stop-color="#6c7379" />
  </linearGradient>
  <path fill="url(#FU0jZ8taJoalsHj6KPdg4i)" d="M27.509,18.21c2.073,1.161,3.497,3.344,3.582,5.868c0.004,0.109,0.005,0.218,0.003,0.328 c-0.046,3.623-2.845,6.582-6.4,6.879c-0.269,0.022-0.54,0.029-0.812,0.021c-1.604-0.049-3.071-0.64-4.226-1.595 c-0.16-0.069-0.302-0.155-0.43-0.255c1.231,2.43,3.783,4.111,6.728,4.111c4.351,0,7.878-3.527,7.878-7.878 c0-2.991-1.691-5.581-4.156-6.876C28.998,18.515,28.271,18.307,27.509,18.21z" />
  <linearGradient id="FU0jZ8taJoalsHj6KPdg4j" x1="24.869" x2="30.537" y1="24.698" y2="29.753" gradientUnits="userSpaceOnUse">
    <stop offset="0" stop-color="#606870" />
    <stop offset="1" stop-color="#697076" />
  </linearGradient>
  <path fill="url(#FU0jZ8taJoalsHj6KPdg4j)" d="M27.509,18.21c2.079,1.164,3.505,3.356,3.582,5.888c0.003,0.11,0.004,0.22,0.002,0.33 c-0.057,3.63-2.878,6.588-6.45,6.86c-0.271,0.02-0.543,0.025-0.816,0.014c-1.605-0.062-3.069-0.665-4.218-1.632 c-0.135-0.037-0.253-0.091-0.356-0.158c1.237,2.317,3.714,3.912,6.565,3.912c4.334,0,7.848-3.514,7.848-7.848 c0-2.934-1.637-5.479-4.033-6.78C28.968,18.508,28.255,18.306,27.509,18.21z" />
  <linearGradient id="FU0jZ8taJoalsHj6KPdg4k" x1="24.837" x2="30.404" y1="24.672" y2="29.636" gradientUnits="userSpaceOnUse">
    <stop offset="0" stop-color="#5e666e" />
    <stop offset="1" stop-color="#676d73" />
  </linearGradient>
  <path fill="url(#FU0jZ8taJoalsHj6KPdg4k)" d="M27.509,18.21c2.084,1.167,3.512,3.367,3.583,5.908c0.003,0.11,0.003,0.221,0.001,0.332 c-0.068,3.637-2.911,6.594-6.499,6.841c-0.272,0.019-0.546,0.021-0.82,0.008c-1.605-0.074-3.067-0.69-4.21-1.669 c-0.111-0.005-0.203-0.027-0.281-0.061c1.242,2.204,3.645,3.712,6.402,3.712c4.317,0,7.817-3.5,7.817-7.817 c0-2.876-1.583-5.376-3.91-6.684C28.939,18.5,28.24,18.304,27.509,18.21z" />
  <linearGradient id="FU0jZ8taJoalsHj6KPdg4l" x1="24.805" x2="30.27" y1="24.645" y2="29.519" gradientUnits="userSpaceOnUse">
    <stop offset="0" stop-color="#5c646b" />
    <stop offset="1" stop-color="#646a70" />
  </linearGradient>
  <path fill="url(#FU0jZ8taJoalsHj6KPdg4l)" d="M27.509,18.21c2.09,1.17,3.52,3.379,3.583,5.929c0.003,0.111,0.003,0.222,0,0.334 c-0.08,3.643-2.945,6.599-6.548,6.822c-0.274,0.017-0.549,0.017-0.824,0.002c-1.605-0.086-3.065-0.715-4.202-1.706 c-0.087,0.027-0.153,0.038-0.207,0.037c1.248,2.09,3.577,3.513,6.239,3.513c4.301,0,7.787-3.486,7.787-7.787 c0-2.819-1.53-5.273-3.786-6.588C28.91,18.493,28.225,18.302,27.509,18.21z" />
  <linearGradient id="FU0jZ8taJoalsHj6KPdg4m" x1="24.772" x2="30.136" y1="24.619" y2="29.403" gradientUnits="userSpaceOnUse">
    <stop offset="0" stop-color="#5a6269" />
    <stop offset="1" stop-color="#61686d" />
  </linearGradient>
  <path fill="url(#FU0jZ8taJoalsHj6KPdg4m)" d="M27.509,18.21c2.095,1.173,3.527,3.39,3.583,5.949c0.002,0.112,0.002,0.224-0.001,0.335 c-0.091,3.65-2.978,6.605-6.597,6.803c-0.276,0.015-0.552,0.014-0.827-0.004c-1.606-0.099-3.063-0.74-4.193-1.743 c-0.062,0.059-0.104,0.102-0.132,0.134c1.253,1.977,3.508,3.313,6.076,3.313c4.284,0,7.757-3.473,7.757-7.757 c0-2.761-1.476-5.17-3.663-6.492C28.88,18.486,28.21,18.3,27.509,18.21z" />
  <linearGradient id="FU0jZ8taJoalsHj6KPdg4n" x1="24.739" x2="30.002" y1="24.593" y2="29.287" gradientUnits="userSpaceOnUse">
    <stop offset="0" stop-color="#585f67" />
    <stop offset="1" stop-color="#5e656a" />
  </linearGradient>
  <path fill="url(#FU0jZ8taJoalsHj6KPdg4n)" d="M27.509,18.21c2.101,1.176,3.535,3.402,3.584,5.969c0.002,0.113,0.002,0.225-0.002,0.337 c-0.103,3.657-3.011,6.61-6.647,6.783c-0.278,0.013-0.555,0.01-0.831-0.01c-1.606-0.111-3.061-0.766-4.185-1.78 c-0.038,0.091-0.054,0.167-0.058,0.231c1.259,1.864,3.439,3.113,5.913,3.113c4.267,0,7.726-3.459,7.726-7.726 c0-2.704-1.422-5.067-3.54-6.396C28.851,18.478,28.195,18.298,27.509,18.21z" />
  <linearGradient id="FU0jZ8taJoalsHj6KPdg4o" x1="24.705" x2="29.866" y1="24.568" y2="29.172" gradientUnits="userSpaceOnUse">
    <stop offset="0" stop-color="#565d64" />
    <stop offset="1" stop-color="#5c6267" />
  </linearGradient>
  <path fill="url(#FU0jZ8taJoalsHj6KPdg4o)" d="M27.509,18.21c2.106,1.179,3.542,3.413,3.584,5.989c0.002,0.113,0.001,0.226-0.003,0.339 c-0.114,3.663-3.044,6.616-6.696,6.764c-0.28,0.011-0.558,0.006-0.835-0.016c-1.606-0.123-3.059-0.791-4.177-1.817 c-0.014,0.123-0.005,0.231,0.017,0.328c1.265,1.75,3.37,2.914,5.75,2.914c4.25,0,7.696-3.446,7.696-7.696 c0-2.646-1.369-4.964-3.417-6.3C28.822,18.471,28.18,18.296,27.509,18.21z" />
  <linearGradient id="FU0jZ8taJoalsHj6KPdg4p" x1="24.67" x2="29.73" y1="24.544" y2="29.058" gradientUnits="userSpaceOnUse">
    <stop offset="0" stop-color="#545b62" />
    <stop offset="1" stop-color="#595f64" />
  </linearGradient>
  <path fill="url(#FU0jZ8taJoalsHj6KPdg4p)" d="M27.509,18.21c2.112,1.182,3.55,3.425,3.585,6.009c0.001,0.114,0,0.228-0.004,0.341 c-0.125,3.67-3.077,6.622-6.745,6.745c-0.282,0.009-0.562,0.002-0.839-0.022c-1.607-0.136-3.057-0.816-4.169-1.854 c0.011,0.156,0.045,0.295,0.091,0.425c1.27,1.637,3.302,2.714,5.587,2.714c4.233,0,7.665-3.432,7.665-7.665 c0-2.589-1.315-4.862-3.293-6.204C28.793,18.464,28.164,18.294,27.509,18.21z" />
  <linearGradient id="FU0jZ8taJoalsHj6KPdg4q" x1="24.634" x2="29.593" y1="24.522" y2="28.945" gradientUnits="userSpaceOnUse">
    <stop offset="0" stop-color="#525960" />
    <stop offset="1" stop-color="#565c62" />
  </linearGradient>
  <path fill="url(#FU0jZ8taJoalsHj6KPdg4q)" d="M27.509,18.21c2.117,1.186,3.557,3.437,3.585,6.029c0.001,0.115,0,0.229-0.005,0.343 c-0.137,3.677-3.11,6.627-6.794,6.726c-0.283,0.007-0.565-0.002-0.843-0.028c-1.607-0.148-3.055-0.841-4.161-1.891 c0.035,0.188,0.094,0.36,0.165,0.523c1.276,1.524,3.233,2.515,5.424,2.515c4.217,0,7.635-3.418,7.635-7.635 c0-2.531-1.261-4.759-3.17-6.108C28.763,18.456,28.149,18.292,27.509,18.21z" />
  <linearGradient id="FU0jZ8taJoalsHj6KPdg4r" x1="24.596" x2="29.454" y1="24.501" y2="28.834" gradientUnits="userSpaceOnUse">
    <stop offset="0" stop-color="#51575d" />
    <stop offset="1" stop-color="#53595f" />
  </linearGradient>
  <path fill="url(#FU0jZ8taJoalsHj6KPdg4r)" d="M27.509,18.21c2.123,1.189,3.565,3.448,3.586,6.049c0.001,0.115-0.001,0.23-0.006,0.345 c-0.148,3.683-3.143,6.633-6.844,6.707c-0.285,0.006-0.568-0.006-0.847-0.034c-1.607-0.16-3.053-0.866-4.153-1.928 c0.059,0.22,0.144,0.424,0.24,0.62c1.281,1.41,3.164,2.315,5.261,2.315c4.2,0,7.605-3.405,7.605-7.605 c0-2.474-1.208-4.656-3.047-6.012C28.734,18.449,28.134,18.29,27.509,18.21z" />
  <linearGradient id="FU0jZ8taJoalsHj6KPdg4s" x1="24.556" x2="29.313" y1="24.483" y2="28.725" gradientUnits="userSpaceOnUse">
    <stop offset="0" stop-color="#4f555b" />
    <stop offset="1" stop-color="#51575c" />
  </linearGradient>
  <path fill="url(#FU0jZ8taJoalsHj6KPdg4s)" d="M27.509,18.21c2.128,1.192,3.572,3.46,3.586,6.069c0.001,0.116-0.002,0.232-0.007,0.346 c-0.16,3.69-3.177,6.639-6.893,6.688c-0.287,0.004-0.571-0.01-0.851-0.04c-1.608-0.172-3.051-0.891-4.144-1.965 c0.084,0.252,0.194,0.488,0.314,0.717c1.287,1.297,3.096,2.115,5.098,2.115c4.183,0,7.574-3.391,7.574-7.574 c0-2.417-1.154-4.553-2.924-5.917C28.705,18.442,28.119,18.288,27.509,18.21z" />
  <linearGradient id="FU0jZ8taJoalsHj6KPdg4t" x1="24.513" x2="29.168" y1="24.469" y2="28.621" gradientUnits="userSpaceOnUse">
    <stop offset="0" stop-color="#4d5358" />
    <stop offset="1" stop-color="#4e5459" />
  </linearGradient>
  <path fill="url(#FU0jZ8taJoalsHj6KPdg4t)" d="M27.509,18.21c2.134,1.195,3.58,3.471,3.587,6.089c0,0.117-0.002,0.233-0.008,0.348 c-0.171,3.697-3.21,6.644-6.942,6.669c-0.289,0.002-0.574-0.014-0.855-0.046c-1.608-0.185-3.049-0.916-4.136-2.002 c0.108,0.284,0.243,0.553,0.389,0.814c1.292,1.184,3.027,1.916,4.935,1.916c4.166,0,7.544-3.377,7.544-7.544 c0-2.359-1.101-4.45-2.8-5.821C28.675,18.434,28.104,18.286,27.509,18.21z" />
  <path fill="#4b5156" d="M24.344,31.856c4.149,0,7.513-3.364,7.513-7.513c0-2.302-1.047-4.347-2.677-5.725 c-0.534-0.191-1.092-0.334-1.672-0.408c2.139,1.198,3.587,3.483,3.587,6.109c0,3.866-3.134,7-7,7c-1.953,0-3.717-0.801-4.986-2.091 c0.133,0.316,0.293,0.617,0.463,0.911C20.87,31.21,22.531,31.856,24.344,31.856z" />
  <linearGradient id="FU0jZ8taJoalsHj6KPdg4u" x1="18.637" x2="29.207" y1="17.406" y2="30.402" gradientUnits="userSpaceOnUse">
    <stop offset="0" stop-color="#e0e3e8" />
    <stop offset="1" stop-color="#737b82" />
  </linearGradient>
  <path fill="url(#FU0jZ8taJoalsHj6KPdg4u)" d="M24,16c-4.418,0-8,3.582-8,8s3.582,8,8,8s8-3.582,8-8S28.418,16,24,16z M24,27.138c-1.733,0-3.138-1.405-3.138-3.138c0-1.733,1.405-3.138,3.138-3.138s3.138,1.405,3.138,3.138C27.138,25.733,25.733,27.138,24,27.138z" />
  <linearGradient id="FU0jZ8taJoalsHj6KPdg4v" x1="20.282" x2="28.421" y1="19.429" y2="29.435" gradientUnits="userSpaceOnUse">
    <stop offset="0" stop-color="#a7adb7" />
    <stop offset="1" stop-color="#87909b" />
  </linearGradient>
  <path fill="url(#FU0jZ8taJoalsHj6KPdg4v)" d="M24,16.527c-4.127,0-7.473,3.346-7.473,7.473s3.346,7.473,7.473,7.473s7.473-3.346,7.473-7.473S28.127,16.527,24,16.527z M24,27.138c-1.733,0-3.138-1.405-3.138-3.138c0-1.733,1.405-3.138,3.138-3.138s3.138,1.405,3.138,3.138C27.138,25.733,25.733,27.138,24,27.138z" />
  <linearGradient id="FU0jZ8taJoalsHj6KPdg4w" x1="21.632" x2="26.299" y1="21.089" y2="26.826" gradientUnits="userSpaceOnUse">
    <stop offset="0" stop-color="#808a93" />
    <stop offset="1" stop-color="#c4cbd6" />
  </linearGradient>
  <path fill="url(#FU0jZ8taJoalsHj6KPdg4w)" d="M24,20.468c-1.951,0-3.532,1.581-3.532,3.532s1.581,3.532,3.532,3.532s3.532-1.581,3.532-3.532S25.951,20.468,24,20.468z M24,27.138c-1.733,0-3.138-1.405-3.138-3.138c0-1.733,1.405-3.138,3.138-3.138s3.138,1.405,3.138,3.138C27.138,25.733,25.733,27.138,24,27.138z" />
  <g>
    <linearGradient id="FU0jZ8taJoalsHj6KPdg4x" x1="15.565" x2="32.787" y1="13.631" y2="34.805" gradientUnits="userSpaceOnUse">
      <stop offset="0" stop-color="#69727c" />
      <stop offset="1" stop-color="#777e84" />
    </linearGradient>
    <path fill="url(#FU0jZ8taJoalsHj6KPdg4x)" d="M14,27c0-7.18,5.82-13,13-13c2.824,0,5.429,0.91,7.561,2.439C32.202,13.15,28.356,11,24,11 c-7.18,0-13,5.82-13,13c0,4.356,2.15,8.202,5.439,10.561C14.91,32.429,14,29.824,14,27z" />
    <linearGradient id="FU0jZ8taJoalsHj6KPdg4y" x1="15.574" x2="32.514" y1="13.631" y2="34.457" gradientUnits="userSpaceOnUse">
      <stop offset="0" stop-color="#666f79" />
      <stop offset="1" stop-color="#737a80" />
    </linearGradient>
    <path fill="url(#FU0jZ8taJoalsHj6KPdg4y)" d="M24,11c-7.18,0-13,5.82-13,13c0,4.258,2.065,8.026,5.237,10.378 c-1.547-2.138-2.499-4.785-2.499-7.626c0-6.412,4.648-11.738,10.753-12.787c0.815-0.14,1.653-0.202,2.506-0.182 c2.842,0.067,5.46,1.06,7.563,2.656c0,0,0,0,0-0.001C32.202,13.15,28.356,11,24,11z" />
    <linearGradient id="FU0jZ8taJoalsHj6KPdg4z" x1="15.583" x2="32.24" y1="13.632" y2="34.11" gradientUnits="userSpaceOnUse">
      <stop offset="0" stop-color="#646c75" />
      <stop offset="1" stop-color="#6f767c" />
    </linearGradient>
    <path fill="url(#FU0jZ8taJoalsHj6KPdg4z)" d="M24,11c-7.18,0-13,5.82-13,13c0,4.16,1.98,7.849,5.035,10.194 c-1.564-2.145-2.559-4.833-2.559-7.691c0-6.489,4.766-11.864,10.979-12.809c0.83-0.126,1.68-0.17,2.541-0.128 c2.86,0.134,5.49,1.211,7.566,2.873c0,0,0,0,0-0.001C32.202,13.15,28.356,11,24,11z" />
    <linearGradient id="FU0jZ8taJoalsHj6KPdg4A" x1="15.591" x2="31.965" y1="13.633" y2="33.763" gradientUnits="userSpaceOnUse">
      <stop offset="0" stop-color="#616972" />
      <stop offset="1" stop-color="#6b7278" />
    </linearGradient>
    <path fill="url(#FU0jZ8taJoalsHj6KPdg4A)" d="M24,11c-7.18,0-13,5.82-13,13c0,4.061,1.895,7.672,4.833,10.011 c-1.582-2.151-2.619-4.881-2.619-7.756c0-6.566,4.883-11.991,11.204-12.831c0.845-0.112,1.707-0.137,2.575-0.075 c2.877,0.201,5.521,1.361,7.568,3.091c0,0,0,0,0,0C32.202,13.15,28.356,11,24,11z" />
    <linearGradient id="FU0jZ8taJoalsHj6KPdg4B" x1="15.599" x2="31.689" y1="13.635" y2="33.417" gradientUnits="userSpaceOnUse">
      <stop offset="0" stop-color="#5e666f" />
      <stop offset="1" stop-color="#676e74" />
    </linearGradient>
    <path fill="url(#FU0jZ8taJoalsHj6KPdg4B)" d="M24,11c-7.18,0-13,5.82-13,13c0,3.963,1.81,7.496,4.631,9.827 c-1.6-2.158-2.679-4.928-2.679-7.821c0-6.643,5.001-12.118,11.429-12.853c0.86-0.098,1.734-0.105,2.61-0.022 c2.895,0.268,5.551,1.512,7.57,3.308c0,0,0,0,0,0C32.202,13.15,28.356,11,24,11z" />
    <linearGradient id="FU0jZ8taJoalsHj6KPdg4C" x1="15.605" x2="31.413" y1="13.637" y2="33.072" gradientUnits="userSpaceOnUse">
      <stop offset="0" stop-color="#5c636b" />
      <stop offset="1" stop-color="#636a70" />
    </linearGradient>
    <path fill="url(#FU0jZ8taJoalsHj6KPdg4C)" d="M24,11c-7.18,0-13,5.82-13,13c0,3.865,1.726,7.319,4.429,9.644 c-1.617-2.164-2.739-4.976-2.739-7.886c0-6.72,5.118-12.245,11.654-12.875c0.875-0.084,1.76-0.072,2.644,0.031 c2.913,0.334,5.582,1.662,7.573,3.525c0,0,0,0,0,0C32.202,13.15,28.356,11,24,11z" />
    <linearGradient id="FU0jZ8taJoalsHj6KPdg4D" x1="15.61" x2="31.134" y1="13.641" y2="32.728" gradientUnits="userSpaceOnUse">
      <stop offset="0" stop-color="#596068" />
      <stop offset="1" stop-color="#60656b" />
    </linearGradient>
    <path fill="url(#FU0jZ8taJoalsHj6KPdg4D)" d="M24,11c-7.18,0-13,5.82-13,13c0,3.766,1.641,7.143,4.227,9.461 c-1.635-2.17-2.8-5.024-2.8-7.952c0-6.797,5.236-12.372,11.88-12.897c0.89-0.07,1.787-0.04,2.679,0.084 c2.931,0.401,5.612,1.813,7.575,3.742c0,0,0,0,0,0C32.202,13.15,28.356,11,24,11z" />
    <linearGradient id="FU0jZ8taJoalsHj6KPdg4E" x1="15.613" x2="30.855" y1="13.646" y2="32.385" gradientUnits="userSpaceOnUse">
      <stop offset="0" stop-color="#575d64" />
      <stop offset="1" stop-color="#5c6167" />
    </linearGradient>
    <path fill="url(#FU0jZ8taJoalsHj6KPdg4E)" d="M24,11c-7.18,0-13,5.82-13,13c0,3.668,1.556,6.966,4.025,9.277 c-1.653-2.177-2.86-5.072-2.86-8.017c0-6.874,5.353-12.499,12.105-12.918c0.905-0.056,1.814-0.007,2.713,0.137 c2.949,0.468,5.643,1.963,7.577,3.959c0,0,0,0,0,0C32.202,13.15,28.356,11,24,11z" />
    <linearGradient id="FU0jZ8taJoalsHj6KPdg4F" x1="15.615" x2="30.574" y1="13.652" y2="32.043" gradientUnits="userSpaceOnUse">
      <stop offset="0" stop-color="#545a61" />
      <stop offset="1" stop-color="#585d63" />
    </linearGradient>
    <path fill="url(#FU0jZ8taJoalsHj6KPdg4F)" d="M24,11c-7.18,0-13,5.82-13,13c0,3.57,1.471,6.79,3.823,9.094 c-1.67-2.183-2.92-5.119-2.92-8.082c0-6.952,5.47-12.625,12.33-12.94c0.92-0.042,1.841,0.025,2.748,0.19 c2.967,0.535,5.673,2.114,7.579,4.177c0,0,0,0,0,0C32.202,13.15,28.356,11,24,11z" />
    <linearGradient id="FU0jZ8taJoalsHj6KPdg4G" x1="15.615" x2="30.291" y1="13.66" y2="31.703" gradientUnits="userSpaceOnUse">
      <stop offset="0" stop-color="#51575e" />
      <stop offset="1" stop-color="#54595f" />
    </linearGradient>
    <path fill="url(#FU0jZ8taJoalsHj6KPdg4G)" d="M24,11c-7.18,0-13,5.82-13,13c0,3.471,1.386,6.613,3.621,8.91 c-1.688-2.19-2.98-5.167-2.98-8.147c0-7.029,5.588-12.752,12.555-12.962c0.935-0.028,1.868,0.058,2.782,0.243 c2.985,0.602,5.704,2.264,7.582,4.394c0,0,0,0,0.001,0C32.202,13.15,28.356,11,24,11z" />
    <linearGradient id="FU0jZ8taJoalsHj6KPdg4H" x1="15.611" x2="30.082" y1="13.669" y2="31.46" gradientUnits="userSpaceOnUse">
      <stop offset="0" stop-color="#4f545a" />
      <stop offset="1" stop-color="#50555b" />
    </linearGradient>
    <path fill="url(#FU0jZ8taJoalsHj6KPdg4H)" d="M24,11c-7.18,0-13,5.82-13,13c0,3.373,1.301,6.437,3.419,8.727 c-1.706-2.196-3.04-5.215-3.04-8.212c0-7.106,5.705-12.879,12.781-12.984c0.949-0.014,1.894,0.09,2.817,0.296 c3.003,0.669,5.734,2.414,7.584,4.611c0,0,0,0,0.001,0C32.202,13.15,28.356,11,24,11z" />
    <path fill="#4c5157" d="M11.116,24.266c0-7.183,5.823-13.006,13.006-13.006c4.096,0,8.055,2.217,10.438,5.178 c0,0,0.001,0,0.001,0.001C32.202,13.15,28.356,11,24,11c-7.18,0-13,5.82-13,13c0,3.275,1.216,6.26,3.217,8.543 C12.493,30.341,11.116,27.281,11.116,24.266z" />
  </g>
  <radialGradient id="FU0jZ8taJoalsHj6KPdg4I" cx="-766.968" cy="40.288" r="3.251" gradientTransform="matrix(.4008 -.4385 .1603 .1465 319.786 -323.808)" gradientUnits="userSpaceOnUse">
    <stop offset="0" stop-color="#fff" stop-opacity=".6" />
    <stop offset=".999" stop-color="#fff" stop-opacity="0" />
  </radialGradient>
  <path fill="url(#FU0jZ8taJoalsHj6KPdg4I)" d="M20.317,16.771c0.344,0.314-0.025,1.279-0.825,2.153c-0.8,0.875-1.727,1.329-2.071,1.015c-0.344-0.314,0.025-1.279,0.825-2.153C19.046,16.911,19.973,16.456,20.317,16.771z" />
  <radialGradient id="FU0jZ8taJoalsHj6KPdg4J" cx="-768.231" cy="47.294" r="3.251" gradientTransform="matrix(.4008 -.4385 .1603 .1465 326.541 -317.633)" gradientUnits="userSpaceOnUse">
    <stop offset="0" stop-color="#fff" stop-opacity=".6" />
    <stop offset=".999" stop-color="#fff" stop-opacity="0" />
  </radialGradient>
  <path fill="url(#FU0jZ8taJoalsHj6KPdg4J)" d="M27.689,24.526c0.344,0.314-0.025,1.279-0.825,2.153c-0.8,0.875-1.727,1.329-2.071,1.015c-0.344-0.314,0.025-1.279,0.825-2.153C26.418,24.666,27.345,24.212,27.689,24.526z" />
  <radialGradient id="FU0jZ8taJoalsHj6KPdg4K" cx="-770.27" cy="53.781" r="3.251" gradientTransform="matrix(.4008 -.4385 .1603 .1465 332.798 -311.914)" gradientUnits="userSpaceOnUse">
    <stop offset="0" stop-color="#fff" stop-opacity=".6" />
    <stop offset=".999" stop-color="#fff" stop-opacity="0" />
  </radialGradient>
  <path fill="url(#FU0jZ8taJoalsHj6KPdg4K)" d="M34.168,32.09c0.344,0.314-0.025,1.279-0.825,2.153c-0.8,0.875-1.727,1.329-2.071,1.015s0.025-1.279,0.825-2.153C32.897,32.23,33.824,31.776,34.168,32.09z" />
</svg>